<mxfile host="app.diagrams.net" agent="Mozilla/5.0 (Windows NT 10.0; Win64; x64) AppleWebKit/537.36 (KHTML, like Gecko) Chrome/129.0.0.0 Safari/537.36" version="24.8.1">
  <diagram name="Seite-1" id="7GLNuF0aDKEa4-XPq16X">
    <mxGraphModel dx="1781" dy="2266" grid="1" gridSize="10" guides="1" tooltips="1" connect="1" arrows="1" fold="1" page="1" pageScale="1" pageWidth="827" pageHeight="1169" math="0" shadow="0">
      <root>
        <mxCell id="0" />
        <mxCell id="1" parent="0" />
        <mxCell id="0t_Dag0jKygUVf50WgdY-1" value="DocumentEntity" style="rounded=1;whiteSpace=wrap;html=1;" vertex="1" parent="1">
          <mxGeometry x="710" y="940" width="120" height="60" as="geometry" />
        </mxCell>
        <mxCell id="0t_Dag0jKygUVf50WgdY-6" value="" style="edgeStyle=orthogonalEdgeStyle;rounded=0;orthogonalLoop=1;jettySize=auto;html=1;" edge="1" parent="1" source="0t_Dag0jKygUVf50WgdY-2" target="0t_Dag0jKygUVf50WgdY-5">
          <mxGeometry relative="1" as="geometry" />
        </mxCell>
        <mxCell id="0t_Dag0jKygUVf50WgdY-24" value="" style="edgeStyle=orthogonalEdgeStyle;rounded=0;orthogonalLoop=1;jettySize=auto;html=1;" edge="1" parent="1" source="0t_Dag0jKygUVf50WgdY-2" target="0t_Dag0jKygUVf50WgdY-23">
          <mxGeometry relative="1" as="geometry" />
        </mxCell>
        <mxCell id="0t_Dag0jKygUVf50WgdY-2" value="FileReader" style="rounded=1;whiteSpace=wrap;html=1;" vertex="1" parent="1">
          <mxGeometry x="40" y="240" width="120" height="60" as="geometry" />
        </mxCell>
        <mxCell id="0t_Dag0jKygUVf50WgdY-11" value="" style="edgeStyle=orthogonalEdgeStyle;rounded=0;orthogonalLoop=1;jettySize=auto;html=1;" edge="1" parent="1" source="0t_Dag0jKygUVf50WgdY-3" target="0t_Dag0jKygUVf50WgdY-10">
          <mxGeometry relative="1" as="geometry" />
        </mxCell>
        <mxCell id="0t_Dag0jKygUVf50WgdY-27" value="" style="edgeStyle=orthogonalEdgeStyle;rounded=0;orthogonalLoop=1;jettySize=auto;html=1;" edge="1" parent="1" source="0t_Dag0jKygUVf50WgdY-3" target="0t_Dag0jKygUVf50WgdY-26">
          <mxGeometry relative="1" as="geometry" />
        </mxCell>
        <mxCell id="0t_Dag0jKygUVf50WgdY-3" value="OCRHandler" style="rounded=1;whiteSpace=wrap;html=1;" vertex="1" parent="1">
          <mxGeometry x="360" y="240" width="120" height="60" as="geometry" />
        </mxCell>
        <mxCell id="0t_Dag0jKygUVf50WgdY-13" value="" style="edgeStyle=orthogonalEdgeStyle;rounded=0;orthogonalLoop=1;jettySize=auto;html=1;" edge="1" parent="1" source="0t_Dag0jKygUVf50WgdY-4" target="0t_Dag0jKygUVf50WgdY-12">
          <mxGeometry relative="1" as="geometry" />
        </mxCell>
        <mxCell id="0t_Dag0jKygUVf50WgdY-29" value="" style="edgeStyle=orthogonalEdgeStyle;rounded=0;orthogonalLoop=1;jettySize=auto;html=1;" edge="1" parent="1" source="0t_Dag0jKygUVf50WgdY-4" target="0t_Dag0jKygUVf50WgdY-28">
          <mxGeometry relative="1" as="geometry" />
        </mxCell>
        <mxCell id="0t_Dag0jKygUVf50WgdY-4" value="ChatHandler" style="rounded=1;whiteSpace=wrap;html=1;" vertex="1" parent="1">
          <mxGeometry x="560" y="240" width="120" height="60" as="geometry" />
        </mxCell>
        <mxCell id="0t_Dag0jKygUVf50WgdY-5" value="IFileReader" style="rounded=1;whiteSpace=wrap;html=1;" vertex="1" parent="1">
          <mxGeometry x="40" y="400" width="120" height="60" as="geometry" />
        </mxCell>
        <mxCell id="0t_Dag0jKygUVf50WgdY-9" value="" style="edgeStyle=orthogonalEdgeStyle;rounded=0;orthogonalLoop=1;jettySize=auto;html=1;" edge="1" parent="1" source="0t_Dag0jKygUVf50WgdY-7" target="0t_Dag0jKygUVf50WgdY-8">
          <mxGeometry relative="1" as="geometry" />
        </mxCell>
        <mxCell id="0t_Dag0jKygUVf50WgdY-25" style="edgeStyle=orthogonalEdgeStyle;rounded=0;orthogonalLoop=1;jettySize=auto;html=1;entryX=1;entryY=0.5;entryDx=0;entryDy=0;" edge="1" parent="1" source="0t_Dag0jKygUVf50WgdY-7" target="0t_Dag0jKygUVf50WgdY-23">
          <mxGeometry relative="1" as="geometry" />
        </mxCell>
        <mxCell id="0t_Dag0jKygUVf50WgdY-7" value="FileWriter" style="rounded=1;whiteSpace=wrap;html=1;" vertex="1" parent="1">
          <mxGeometry x="200" y="80" width="120" height="60" as="geometry" />
        </mxCell>
        <mxCell id="0t_Dag0jKygUVf50WgdY-8" value="IFileWriter" style="rounded=1;whiteSpace=wrap;html=1;" vertex="1" parent="1">
          <mxGeometry x="200" y="400" width="120" height="60" as="geometry" />
        </mxCell>
        <mxCell id="0t_Dag0jKygUVf50WgdY-10" value="I&lt;span style=&quot;background-color: initial;&quot;&gt;OCRHandler&lt;/span&gt;" style="rounded=1;whiteSpace=wrap;html=1;" vertex="1" parent="1">
          <mxGeometry x="360" y="400" width="120" height="60" as="geometry" />
        </mxCell>
        <mxCell id="0t_Dag0jKygUVf50WgdY-12" value="IChatHandler" style="rounded=1;whiteSpace=wrap;html=1;" vertex="1" parent="1">
          <mxGeometry x="560" y="400" width="120" height="60" as="geometry" />
        </mxCell>
        <mxCell id="0t_Dag0jKygUVf50WgdY-22" value="" style="edgeStyle=orthogonalEdgeStyle;rounded=0;orthogonalLoop=1;jettySize=auto;html=1;entryX=0.5;entryY=0;entryDx=0;entryDy=0;" edge="1" parent="1" source="0t_Dag0jKygUVf50WgdY-14" target="0t_Dag0jKygUVf50WgdY-17">
          <mxGeometry relative="1" as="geometry">
            <mxPoint x="680" y="1030" as="targetPoint" />
          </mxGeometry>
        </mxCell>
        <mxCell id="0t_Dag0jKygUVf50WgdY-14" value="DB" style="shape=cylinder3;whiteSpace=wrap;html=1;boundedLbl=1;backgroundOutline=1;size=15;" vertex="1" parent="1">
          <mxGeometry x="740" y="80" width="60" height="80" as="geometry" />
        </mxCell>
        <mxCell id="0t_Dag0jKygUVf50WgdY-18" value="" style="edgeStyle=orthogonalEdgeStyle;rounded=0;orthogonalLoop=1;jettySize=auto;html=1;" edge="1" parent="1" source="0t_Dag0jKygUVf50WgdY-15" target="0t_Dag0jKygUVf50WgdY-17">
          <mxGeometry relative="1" as="geometry" />
        </mxCell>
        <mxCell id="0t_Dag0jKygUVf50WgdY-30" style="edgeStyle=orthogonalEdgeStyle;rounded=0;orthogonalLoop=1;jettySize=auto;html=1;" edge="1" parent="1" source="0t_Dag0jKygUVf50WgdY-15" target="0t_Dag0jKygUVf50WgdY-1">
          <mxGeometry relative="1" as="geometry" />
        </mxCell>
        <mxCell id="0t_Dag0jKygUVf50WgdY-15" value="IRepository" style="rounded=1;whiteSpace=wrap;html=1;" vertex="1" parent="1">
          <mxGeometry x="710" y="700" width="120" height="60" as="geometry" />
        </mxCell>
        <mxCell id="0t_Dag0jKygUVf50WgdY-17" value="IDocumentRepository" style="rounded=1;whiteSpace=wrap;html=1;" vertex="1" parent="1">
          <mxGeometry x="710" y="400" width="120" height="60" as="geometry" />
        </mxCell>
        <mxCell id="0t_Dag0jKygUVf50WgdY-23" value="FileSystem&lt;div&gt;&lt;br&gt;&lt;/div&gt;" style="rounded=1;whiteSpace=wrap;html=1;" vertex="1" parent="1">
          <mxGeometry x="40" y="80" width="120" height="60" as="geometry" />
        </mxCell>
        <mxCell id="0t_Dag0jKygUVf50WgdY-26" value="OCR Service" style="rounded=1;whiteSpace=wrap;html=1;" vertex="1" parent="1">
          <mxGeometry x="360" y="80" width="120" height="60" as="geometry" />
        </mxCell>
        <mxCell id="0t_Dag0jKygUVf50WgdY-28" value="ChatService" style="rounded=1;whiteSpace=wrap;html=1;" vertex="1" parent="1">
          <mxGeometry x="560" y="80" width="120" height="60" as="geometry" />
        </mxCell>
        <mxCell id="0t_Dag0jKygUVf50WgdY-31" value="DocumentEntity" style="rounded=1;whiteSpace=wrap;html=1;" vertex="1" parent="1">
          <mxGeometry x="550" y="940" width="120" height="60" as="geometry" />
        </mxCell>
        <mxCell id="0t_Dag0jKygUVf50WgdY-44" value="File" style="swimlane;fontStyle=0;childLayout=stackLayout;horizontal=1;startSize=26;fillColor=none;horizontalStack=0;resizeParent=1;resizeParentMax=0;resizeLast=0;collapsible=1;marginBottom=0;whiteSpace=wrap;html=1;swimlaneBody=1;" vertex="1" parent="1">
          <mxGeometry x="160" y="770" width="140" height="104" as="geometry" />
        </mxCell>
        <mxCell id="0t_Dag0jKygUVf50WgdY-45" value="+ path: Path" style="text;strokeColor=none;fillColor=none;align=left;verticalAlign=top;spacingLeft=4;spacingRight=4;overflow=hidden;rotatable=0;points=[[0,0.5],[1,0.5]];portConstraint=eastwest;whiteSpace=wrap;html=1;" vertex="1" parent="0t_Dag0jKygUVf50WgdY-44">
          <mxGeometry y="26" width="140" height="26" as="geometry" />
        </mxCell>
        <mxCell id="0t_Dag0jKygUVf50WgdY-46" value="+ field: type" style="text;strokeColor=none;fillColor=none;align=left;verticalAlign=top;spacingLeft=4;spacingRight=4;overflow=hidden;rotatable=0;points=[[0,0.5],[1,0.5]];portConstraint=eastwest;whiteSpace=wrap;html=1;" vertex="1" parent="0t_Dag0jKygUVf50WgdY-44">
          <mxGeometry y="52" width="140" height="26" as="geometry" />
        </mxCell>
        <mxCell id="0t_Dag0jKygUVf50WgdY-47" value="+ field: type" style="text;strokeColor=none;fillColor=none;align=left;verticalAlign=top;spacingLeft=4;spacingRight=4;overflow=hidden;rotatable=0;points=[[0,0.5],[1,0.5]];portConstraint=eastwest;whiteSpace=wrap;html=1;" vertex="1" parent="0t_Dag0jKygUVf50WgdY-44">
          <mxGeometry y="78" width="140" height="26" as="geometry" />
        </mxCell>
        <mxCell id="0t_Dag0jKygUVf50WgdY-48" value="OCR Request" style="swimlane;fontStyle=0;childLayout=stackLayout;horizontal=1;startSize=26;fillColor=none;horizontalStack=0;resizeParent=1;resizeParentMax=0;resizeLast=0;collapsible=1;marginBottom=0;whiteSpace=wrap;html=1;swimlaneBody=1;" vertex="1" parent="1">
          <mxGeometry x="320" y="770" width="140" height="104" as="geometry" />
        </mxCell>
        <mxCell id="0t_Dag0jKygUVf50WgdY-49" value="+ path: Path" style="text;strokeColor=none;fillColor=none;align=left;verticalAlign=top;spacingLeft=4;spacingRight=4;overflow=hidden;rotatable=0;points=[[0,0.5],[1,0.5]];portConstraint=eastwest;whiteSpace=wrap;html=1;" vertex="1" parent="0t_Dag0jKygUVf50WgdY-48">
          <mxGeometry y="26" width="140" height="26" as="geometry" />
        </mxCell>
        <mxCell id="0t_Dag0jKygUVf50WgdY-50" value="+ lang: str" style="text;strokeColor=none;fillColor=none;align=left;verticalAlign=top;spacingLeft=4;spacingRight=4;overflow=hidden;rotatable=0;points=[[0,0.5],[1,0.5]];portConstraint=eastwest;whiteSpace=wrap;html=1;" vertex="1" parent="0t_Dag0jKygUVf50WgdY-48">
          <mxGeometry y="52" width="140" height="26" as="geometry" />
        </mxCell>
        <mxCell id="0t_Dag0jKygUVf50WgdY-51" value="+ field: type" style="text;strokeColor=none;fillColor=none;align=left;verticalAlign=top;spacingLeft=4;spacingRight=4;overflow=hidden;rotatable=0;points=[[0,0.5],[1,0.5]];portConstraint=eastwest;whiteSpace=wrap;html=1;" vertex="1" parent="0t_Dag0jKygUVf50WgdY-48">
          <mxGeometry y="78" width="140" height="26" as="geometry" />
        </mxCell>
        <mxCell id="0t_Dag0jKygUVf50WgdY-52" value="" style="edgeStyle=orthogonalEdgeStyle;rounded=0;orthogonalLoop=1;jettySize=auto;html=1;" edge="1" parent="1" source="0t_Dag0jKygUVf50WgdY-54" target="0t_Dag0jKygUVf50WgdY-55">
          <mxGeometry relative="1" as="geometry" />
        </mxCell>
        <mxCell id="0t_Dag0jKygUVf50WgdY-58" value="" style="edgeStyle=orthogonalEdgeStyle;rounded=0;orthogonalLoop=1;jettySize=auto;html=1;" edge="1" parent="1" source="0t_Dag0jKygUVf50WgdY-54" target="0t_Dag0jKygUVf50WgdY-23">
          <mxGeometry relative="1" as="geometry" />
        </mxCell>
        <mxCell id="0t_Dag0jKygUVf50WgdY-54" value="ConfigReader" style="rounded=1;whiteSpace=wrap;html=1;" vertex="1" parent="1">
          <mxGeometry x="-120" y="80" width="120" height="60" as="geometry" />
        </mxCell>
        <mxCell id="0t_Dag0jKygUVf50WgdY-55" value="Controller" style="rounded=1;whiteSpace=wrap;html=1;" vertex="1" parent="1">
          <mxGeometry x="-120" y="400" width="120" height="60" as="geometry" />
        </mxCell>
      </root>
    </mxGraphModel>
  </diagram>
</mxfile>
